<?xml version="1.0" standalone="no"?>
<!DOCTYPE svg PUBLIC "-//W3C//DTD SVG 20010904//EN"
 "http://www.w3.org/TR/2001/REC-SVG-20010904/DTD/svg10.dtd">
<svg version="1.0" xmlns="http://www.w3.org/2000/svg"
 width="646.000000pt" height="646.000000pt" viewBox="0 0 646.000000 646.000000"
 preserveAspectRatio="xMidYMid meet">
<metadata>
Created by potrace 1.14, written by Peter Selinger 2001-2017
</metadata>
<g transform="translate(0.000000,646.000000) scale(0.100000,-0.100000)"
fill="#000000" stroke="none">
<path d="M2393 6444 c-54 -20 -126 -84 -161 -142 -24 -41 -27 -57 -27 -132 0
-97 20 -146 82 -206 63 -62 107 -78 208 -80 l89 -1 21 -39 c120 -226 243 -455
307 -574 89 -163 88 -150 34 -286 -19 -49 -59 -153 -89 -231 -31 -77 -61 -150
-68 -162 -13 -20 -13 -20 -46 5 -18 13 -68 48 -110 76 -43 28 -79 52 -80 53
-2 1 1 15 6 31 4 16 4 40 0 53 -8 19 -4 29 20 53 32 32 48 91 36 130 -12 38
-55 89 -87 102 -37 16 -123 4 -150 -21 -57 -51 -65 -139 -18 -198 25 -32 29
-43 24 -79 -5 -36 -2 -47 21 -74 15 -19 36 -32 49 -32 13 0 31 -10 42 -21 10
-12 69 -55 131 -96 62 -41 115 -78 119 -84 7 -12 -36 -79 -52 -79 -31 0 -247
-128 -300 -178 -12 -11 -26 -17 -32 -13 -10 6 -94 146 -170 281 -14 25 -35 59
-48 75 -21 29 -22 33 -9 90 7 33 20 103 30 155 9 52 23 127 30 165 7 39 16 89
20 113 4 28 13 45 23 48 97 28 154 94 160 183 13 180 -193 277 -328 155 -50
-45 -63 -81 -58 -153 5 -70 40 -128 94 -157 31 -16 35 -23 31 -49 -12 -87 -70
-382 -77 -394 -6 -11 -12 -7 -25 19 -15 29 -210 358 -366 617 -27 45 -49 85
-49 88 0 3 11 21 25 39 37 48 55 110 55 186 0 56 -5 78 -30 126 -37 69 -58 89
-129 122 -79 36 -176 36 -248 0 -126 -64 -186 -191 -152 -323 5 -22 11 -46 12
-53 2 -7 9 -18 15 -24 7 -7 12 -17 12 -22 0 -14 55 -61 110 -94 40 -24 55 -27
138 -27 l93 0 141 -235 c219 -366 278 -469 270 -474 -4 -2 -61 4 -127 14 -66
10 -142 21 -170 24 -52 6 -96 13 -130 21 -11 2 -42 7 -70 10 -27 3 -97 12
-155 20 -58 8 -129 17 -159 20 -72 7 -84 16 -99 69 -38 143 -189 247 -337 232
-141 -14 -245 -105 -280 -245 -28 -108 1 -216 79 -294 78 -78 173 -110 274
-95 97 15 165 64 227 161 l36 58 82 -5 c45 -2 120 -11 167 -19 47 -8 114 -18
150 -22 36 -4 123 -15 194 -26 71 -10 132 -17 134 -15 2 3 20 -1 40 -8 21 -7
55 -14 77 -15 22 -1 67 -5 99 -9 l60 -7 98 -164 c54 -90 98 -166 98 -168 0 -3
13 -24 30 -47 l29 -44 -56 -73 c-213 -278 -302 -560 -291 -924 2 -80 1 -145
-2 -145 -4 0 -51 16 -106 36 -54 20 -162 58 -239 84 -136 48 -140 50 -139 77
1 33 72 283 85 299 5 7 22 14 37 17 63 13 121 93 122 166 0 49 -34 112 -74
139 -45 31 -128 39 -177 18 -89 -38 -129 -135 -91 -217 25 -54 40 -72 71 -88
18 -10 22 -19 18 -39 -6 -37 -75 -274 -82 -280 -7 -7 -95 19 -95 29 0 5 -7 9
-15 9 -8 0 -54 14 -103 31 -48 17 -150 53 -227 78 l-140 48 -1 54 c-2 93 -30
166 -84 219 -66 64 -128 88 -216 84 -38 -2 -77 -4 -86 -5 -10 0 -18 -3 -18 -7
0 -4 -20 -16 -44 -26 -25 -11 -43 -24 -40 -28 3 -4 0 -8 -6 -8 -14 0 -41 -26
-34 -32 2 -3 -5 -13 -16 -23 -11 -10 -20 -26 -20 -35 0 -9 -3 -20 -7 -24 -5
-4 -8 -11 -9 -14 0 -4 -4 -14 -8 -24 -4 -9 -5 -51 -2 -93 4 -61 10 -86 31
-116 14 -21 23 -39 20 -39 -3 0 9 -13 26 -30 18 -16 35 -27 40 -24 5 3 9 0 9
-5 0 -10 52 -37 90 -48 63 -18 220 2 220 28 0 5 6 9 14 9 8 0 16 3 18 8 2 4
19 22 39 40 l36 33 64 -25 c35 -13 150 -54 254 -91 105 -37 246 -87 315 -112
69 -24 177 -63 240 -85 126 -44 364 -130 367 -133 2 -1 12 -36 22 -78 11 -42
33 -110 50 -151 16 -41 31 -82 33 -91 3 -16 -22 -17 -322 -16 -370 2 -335 -7
-388 96 -19 37 -25 62 -23 95 3 50 -20 85 -64 96 -20 5 -23 10 -18 35 9 46
-19 79 -66 79 -46 0 -71 -24 -71 -67 0 -30 26 -63 48 -63 15 0 15 -3 1 -34
-23 -49 18 -116 72 -116 22 0 33 -10 62 -60 l36 -59 -321 -3 c-202 -2 -328 1
-338 7 -9 6 -32 20 -51 33 -27 19 -44 22 -83 19 -42 -4 -55 -10 -84 -42 -32
-35 -34 -41 -30 -93 4 -48 10 -60 41 -89 30 -27 45 -33 79 -33 50 0 103 29
120 65 l11 25 447 0 446 0 20 -103 20 -104 -33 -21 c-47 -32 -66 -74 -61 -139
5 -60 26 -95 79 -131 47 -32 122 -27 173 12 44 33 55 54 63 114 9 77 -35 143
-109 163 -21 5 -38 15 -38 22 -1 21 -18 131 -25 160 l-7 27 243 0 244 -1 65
-91 c36 -50 111 -134 168 -188 56 -53 102 -100 102 -103 0 -7 -106 -56 -185
-87 -20 -7 -105 -42 -160 -66 -16 -7 -104 -42 -195 -79 -237 -96 -316 -129
-390 -160 l-64 -27 -15 23 c-35 54 -98 107 -154 128 -84 31 -189 29 -259 -4
-163 -78 -232 -241 -178 -417 24 -78 89 -152 171 -194 47 -24 65 -28 139 -28
72 0 93 4 135 26 117 61 185 173 189 313 1 49 2 50 46 71 25 12 48 20 52 18 3
-2 8 0 10 4 4 10 157 72 176 72 10 0 12 -45 9 -218 -1 -119 -6 -226 -11 -238
-5 -14 -1 -28 13 -45 l20 -24 42 43 c42 42 43 43 27 70 -13 23 -15 59 -12 236
2 116 7 213 11 217 5 4 94 42 198 84 105 43 259 106 344 141 l155 64 35 -25
c115 -80 149 -113 154 -152 8 -62 7 -615 -1 -653 -7 -31 -33 -53 -247 -212
-271 -201 -523 -386 -555 -408 -13 -8 -28 -20 -34 -26 -6 -6 -29 -23 -51 -37
-67 -43 -140 -102 -140 -113 0 -6 17 -25 38 -44 l39 -34 183 92 c101 50 185
89 187 86 7 -6 -102 -117 -189 -193 -40 -35 -73 -66 -73 -70 0 -6 69 -48 150
-90 l45 -23 340 172 c582 295 609 308 647 318 46 13 93 6 133 -18 17 -10 41
-21 55 -25 14 -4 36 -18 50 -30 14 -13 194 -107 400 -210 206 -102 383 -190
392 -195 10 -6 24 -10 33 -10 18 0 185 98 185 108 0 11 -65 72 -187 176 -57
49 -103 92 -103 97 0 15 51 -2 95 -30 52 -33 85 -51 85 -46 0 3 15 -3 33 -13
17 -10 64 -36 104 -57 l72 -39 42 29 c65 45 64 51 -15 110 -22 17 -50 39 -62
50 -12 11 -50 40 -84 65 -34 25 -85 63 -113 85 -29 22 -68 52 -87 65 -19 13
-39 28 -45 33 -22 18 -279 207 -389 287 -151 109 -166 122 -170 140 -2 8 -6
23 -10 32 -14 31 -14 53 0 76 8 12 10 22 4 22 -12 0 -14 559 -2 575 9 13 150
126 182 147 52 33 240 211 291 277 l25 32 55 -37 c30 -21 73 -53 96 -71 l42
-35 -81 -131 c-44 -73 -92 -151 -107 -175 -24 -38 -29 -42 -67 -42 -55 0 -115
-43 -138 -99 -20 -52 -20 -70 0 -122 63 -156 295 -120 312 49 4 41 0 59 -23
100 l-27 50 97 161 c86 142 99 159 116 151 20 -11 374 -266 497 -358 l72 -54
0 -69 c0 -125 60 -228 164 -281 57 -29 159 -35 224 -14 108 36 191 147 200
265 5 84 -8 133 -56 201 -54 79 -113 112 -208 118 -105 7 -170 -16 -245 -85
l-26 -24 -69 48 c-39 26 -76 54 -84 60 -16 14 -306 228 -376 278 -23 17 -86
61 -140 99 -115 80 -144 105 -144 122 0 6 15 37 34 68 54 89 116 239 140 338
17 68 27 93 42 99 10 4 138 8 283 8 206 1 262 -2 259 -11 -3 -7 -16 -46 -29
-86 -23 -71 -25 -72 -63 -79 -46 -7 -101 -58 -111 -102 -7 -35 9 -96 34 -125
21 -25 73 -46 111 -46 109 0 169 128 105 223 -20 28 -23 41 -16 56 6 10 20 49
32 87 12 38 27 75 32 82 6 7 34 12 72 12 58 0 66 -3 108 -37 25 -21 116 -96
202 -168 87 -71 169 -139 182 -150 l25 -21 -17 -49 c-37 -110 30 -229 141
-250 44 -8 149 27 158 53 4 10 16 33 26 52 74 132 -65 302 -212 258 -34 -10
-39 -8 -71 18 -19 16 -91 77 -160 136 -69 59 -146 123 -170 141 -25 19 -42 39
-38 44 3 6 51 27 106 48 169 63 349 134 370 146 15 9 20 9 24 -2 8 -25 88 -96
134 -118 52 -25 160 -35 210 -20 92 30 154 82 192 165 87 189 -26 401 -232
434 -57 9 -68 8 -172 -21 -8 -2 -23 -11 -34 -19 -104 -78 -141 -144 -141 -252
l-1 -68 -55 -19 c-66 -23 -287 -108 -315 -121 -11 -5 -61 -25 -111 -44 -83
-31 -100 -34 -209 -35 l-118 -2 6 28 c3 15 11 42 18 58 7 17 13 32 13 35 3 15
81 203 104 250 l27 55 45 -3 c62 -4 152 31 197 75 103 104 113 274 21 378 -88
99 -225 125 -347 64 -170 -85 -204 -298 -70 -435 l41 -42 -50 -123 c-28 -68
-70 -171 -94 -229 l-43 -105 -190 0 -190 0 -1 155 c0 85 -4 187 -8 225 -30
281 -153 560 -329 752 l-39 43 48 21 c27 11 62 26 79 34 79 35 410 167 425
170 3 1 25 5 50 9 25 5 63 15 85 23 22 8 114 27 205 43 91 16 180 34 199 39
19 6 38 8 43 5 4 -3 21 -31 37 -62 61 -120 201 -216 331 -228 123 -12 242 32
329 119 206 207 145 563 -117 684 -67 32 -82 34 -166 34 -138 -1 -230 -41
-320 -142 -55 -61 -81 -115 -96 -199 -7 -36 -15 -72 -19 -80 -9 -18 -66 -32
-251 -65 -80 -13 -158 -28 -175 -31 -16 -3 -34 -7 -40 -8 -5 -1 -16 -5 -23
-10 -30 -19 -22 7 19 56 24 29 46 55 49 58 4 3 48 53 99 113 84 97 96 107 126
107 67 0 108 36 108 96 0 16 9 35 24 48 25 22 33 64 19 98 -5 10 -2 18 6 21 7
2 4 3 -7 1 -11 -1 -28 3 -38 11 -32 23 -117 -17 -117 -56 0 -10 -4 -19 -9 -19
-17 0 -72 -53 -82 -77 -5 -13 -5 -33 1 -47 5 -14 6 -26 2 -28 -7 -3 -136 -147
-157 -176 -5 -7 -21 -26 -35 -41 -32 -36 -53 -61 -122 -146 -57 -70 -57 -70
-190 -124 -73 -30 -151 -62 -173 -71 -22 -10 -78 -32 -125 -50 -47 -18 -93
-37 -103 -42 -21 -10 -37 -3 -37 18 0 9 11 43 24 77 13 34 52 139 86 232 63
174 199 546 252 690 16 44 36 100 44 125 7 25 18 54 23 65 4 11 12 34 17 50 9
29 12 30 84 35 123 9 200 61 256 173 84 164 -9 369 -191 422 -67 19 -103 19
-170 0 -93 -27 -164 -92 -198 -183 -23 -59 -22 -165 3 -219 10 -24 16 -43 13
-43 -3 0 20 -25 51 -56 l57 -56 -27 -81 c-14 -45 -32 -95 -40 -112 -7 -16 -19
-51 -28 -76 -23 -72 -126 -352 -138 -376 -11 -22 -28 -31 -28 -15 0 4 -38 72
-85 150 -47 79 -85 145 -85 148 0 2 -16 28 -35 57 -28 41 -35 62 -35 98 0 38
-6 53 -29 78 -25 27 -36 31 -79 31 -44 0 -53 -4 -77 -32 -23 -27 -26 -39 -22
-73 8 -55 55 -98 104 -93 l35 3 75 -130 c41 -72 86 -150 100 -175 14 -25 43
-76 66 -115 22 -38 40 -74 40 -80 0 -5 -32 -96 -71 -201 -40 -104 -72 -195
-72 -200 0 -6 -6 -18 -13 -28 -12 -16 -20 -14 -112 33 -55 28 -105 51 -111 51
-6 0 -45 11 -85 24 -41 13 -106 28 -144 32 -93 10 -279 7 -357 -6 -35 -5 -66
-10 -71 -10 -10 0 2 46 28 105 12 28 32 82 45 120 13 39 38 105 57 148 18 43
33 85 33 92 0 7 7 18 15 25 12 10 41 9 150 -5 l135 -17 0 -28 c0 -33 39 -84
81 -105 36 -19 102 -19 139 0 65 33 95 147 53 203 -52 70 -133 90 -202 51 -23
-12 -41 -27 -41 -32 0 -6 -22 -7 -52 -4 -94 11 -222 28 -225 31 -2 1 20 61 48
132 28 71 67 172 86 224 19 52 38 99 43 105 4 5 8 13 9 18 0 9 29 88 86 232
24 61 49 126 56 146 12 35 14 37 69 42 114 10 191 77 215 186 16 74 -41 177
-119 212 -45 20 -148 25 -190 9 -38 -14 -105 -79 -122 -118 -28 -68 -8 -182
39 -221 10 -7 17 -19 17 -25 0 -6 -39 -110 -86 -231 -47 -121 -99 -256 -115
-300 -16 -44 -36 -93 -43 -110 -7 -16 -21 -52 -31 -78 -21 -55 -32 -66 -42
-40 -4 10 -26 50 -48 88 -40 68 -80 141 -200 370 -32 61 -71 134 -88 164 -29
51 -29 54 -11 64 32 17 82 77 106 126 34 71 32 180 -5 243 -29 49 -88 103
-147 134 -48 24 -180 29 -237 8z"/>
</g>
</svg>
